<?xml version="1.0" encoding="UTF-8" standalone="no"?>
<svg
   width="3074"
   height="2651"
   xml:space="preserve"
   overflow="hidden"
   version="1.1"
   id="svg243"
   sodipodi:docname="block_diagram_bg_white.svg"
   inkscape:export-filename="block_diagram.png"
   inkscape:export-xdpi="72"
   inkscape:export-ydpi="72"
   inkscape:version="1.2 (dc2aedaf03, 2022-05-15)"
   xmlns:inkscape="http://www.inkscape.org/namespaces/inkscape"
   xmlns:sodipodi="http://sodipodi.sourceforge.net/DTD/sodipodi-0.dtd"
   xmlns="http://www.w3.org/2000/svg"
   xmlns:svg="http://www.w3.org/2000/svg"><sodipodi:namedview
     id="namedview245"
     pagecolor="#ffffff"
     bordercolor="#666666"
     borderopacity="1.0"
     inkscape:showpageshadow="2"
     inkscape:pageopacity="0.0"
     inkscape:pagecheckerboard="0"
     inkscape:deskcolor="#d1d1d1"
     showgrid="false"
     inkscape:zoom="0.27393386"
     inkscape:cx="1912.8705"
     inkscape:cy="1206.4956"
     inkscape:window-width="1920"
     inkscape:window-height="1010"
     inkscape:window-x="5113"
     inkscape:window-y="-6"
     inkscape:window-maximized="1"
     inkscape:current-layer="g241" /><defs
     id="defs5"><clipPath
       id="clip0"><rect
         x="174"
         y="749"
         width="3074"
         height="2651"
         id="rect2" /></clipPath></defs><g
     clip-path="url(#clip0)"
     transform="translate(-174 -749)"
     id="g241"><rect
       x="177.5"
       y="752.5"
       width="3067"
       height="2644"
       stroke="#000000"
       stroke-width="6.875"
       stroke-miterlimit="8"
       fill="none"
       id="rect7"
       style="fill:#ffffff" /><rect
       x="722.5"
       y="2776.5"
       width="1355"
       height="175"
       stroke="#000000"
       stroke-width="3.4375"
       stroke-miterlimit="8"
       fill="none"
       id="rect9" /><text
       font-family="Calibri,Calibri_MSFontService,sans-serif"
       font-weight="400"
       font-size="37"
       transform="matrix(1 0 0 1 1171.9 2875)"
       id="text11">USER INTERFACE CONTROLLER</text><rect
       x="1098.5"
       y="3065.5"
       width="276"
       height="133"
       stroke="#000000"
       stroke-width="3.4375"
       stroke-miterlimit="8"
       fill="none"
       id="rect13" /><text
       font-family="Calibri,Calibri_MSFontService,sans-serif"
       font-weight="400"
       font-size="37"
       transform="matrix(1 0 0 1 1175.4 3122)"
       id="text15">ROTARY </text><text
       font-family="Calibri,Calibri_MSFontService,sans-serif"
       font-weight="400"
       font-size="37"
       transform="matrix(1 0 0 1 1163.37 3166)"
       id="text17">ENCODER</text><rect
       x="761.5"
       y="3065.5"
       width="276"
       height="133"
       stroke="#000000"
       stroke-width="3.4375"
       stroke-miterlimit="8"
       fill="none"
       id="rect19" /><text
       font-family="Calibri,Calibri_MSFontService,sans-serif"
       font-weight="400"
       font-size="37"
       transform="matrix(1 0 0 1 839.915 3100)"
       id="text21">TACTILE </text><text
       font-family="Calibri,Calibri_MSFontService,sans-serif"
       font-weight="400"
       font-size="37"
       transform="matrix(1 0 0 1 839.915 3144)"
       id="text23">SWITCH </text><text
       font-family="Calibri,Calibri_MSFontService,sans-serif"
       font-weight="400"
       font-size="37"
       transform="matrix(1 0 0 1 839.915 3188)"
       id="text25">MATRIX</text><rect
       x="1434.5"
       y="3065.5"
       width="277"
       height="133"
       stroke="#000000"
       stroke-width="3.4375"
       stroke-miterlimit="8"
       fill="none"
       id="rect27" /><text
       font-family="Calibri,Calibri_MSFontService,sans-serif"
       font-weight="400"
       font-size="37"
       transform="matrix(1 0 0 1 1479.95 3100)"
       id="text29">LED DISPLAY </text><text
       font-family="Calibri,Calibri_MSFontService,sans-serif"
       font-weight="400"
       font-size="37"
       transform="matrix(1 0 0 1 1478.23 3144)"
       id="text31">AND STATUS </text><text
       font-family="Calibri,Calibri_MSFontService,sans-serif"
       font-weight="400"
       font-size="37"
       transform="matrix(1 0 0 1 1536.4 3188)"
       id="text33">LEDS</text><rect
       x="1771.5"
       y="3065.5"
       width="276"
       height="133"
       stroke="#000000"
       stroke-width="3.4375"
       stroke-miterlimit="8"
       fill="none"
       id="rect35" /><text
       font-family="Calibri,Calibri_MSFontService,sans-serif"
       font-weight="400"
       font-size="37"
       transform="matrix(1 0 0 1 1851.25 3144)"
       id="text37">BUZZER</text><path
       d="M1.14591 22.9167 1.14612 91.5454-1.14554 91.5454-1.14576 22.9167ZM-13.7499 27.5 0 0 13.7501 27.5ZM13.7503 86.962 0.000360892 114.462-13.7497 86.9621Z"
       transform="matrix(1 0 0 -1 899 3065.46)"
       id="path39" /><path
       d="M1.14583-3.61275e-06 1.14612 91.5454-1.14554 91.5454-1.14583 3.61275e-06ZM13.7503 86.962 0.000360892 114.462-13.7497 86.9621Z"
       transform="matrix(1 0 0 -1 1236 3065.46)"
       id="path41" /><path
       d="M1.14591 22.9167 1.14619 114.462-1.14547 114.462-1.14576 22.9167ZM-13.7499 27.5 0 0 13.7501 27.5Z"
       transform="matrix(1 0 0 -1 1581 3065.46)"
       id="path43" /><path
       d="M1.14591 22.9167 1.14619 114.462-1.14547 114.462-1.14576 22.9167ZM-13.7499 27.5 0 0 13.7501 27.5Z"
       transform="matrix(1 0 0 -1 1909 3065.46)"
       id="path45" /><rect
       x="521.5"
       y="2636.5"
       width="1835"
       height="643"
       stroke="#000000"
       stroke-width="3.4375"
       stroke-miterlimit="8"
       stroke-dasharray="13.75 10.3125"
       fill="none"
       id="rect47" /><text
       font-family="Calibri,Calibri_MSFontService,sans-serif"
       font-weight="400"
       font-size="46"
       transform="matrix(1 0 0 1 553.699 2695)"
       id="text49">USER INTERFACE BOARD</text><rect
       x="1016.5"
       y="1791.5"
       width="866"
       height="511"
       stroke="#000000"
       stroke-width="3.4375"
       stroke-miterlimit="8"
       fill="none"
       id="rect51" /><text
       font-family="Calibri,Calibri_MSFontService,sans-serif"
       font-weight="400"
       font-size="37"
       transform="matrix(1 0 0 1 1303.6 2059)"
       id="text53">MAIN CONTROLLER</text><rect
       x="1016.5"
       y="1466.5"
       width="649"
       height="175"
       stroke="#000000"
       stroke-width="3.4375"
       stroke-miterlimit="8"
       fill="none"
       id="rect55" /><text
       font-family="Calibri,Calibri_MSFontService,sans-serif"
       font-weight="400"
       font-size="37"
       transform="matrix(1 0 0 1 1164.19 1566)"
       id="text57">RELAY DRIVER CIRCUITS</text><rect
       x="1016.5"
       y="975.5"
       width="866"
       height="366"
       stroke="#000000"
       stroke-width="3.4375"
       stroke-miterlimit="8"
       fill="none"
       id="rect59" /><text
       font-family="Calibri,Calibri_MSFontService,sans-serif"
       font-weight="400"
       font-size="37"
       transform="matrix(1 0 0 1 1168.96 1148)"
       id="text61">PROGRAMMABLE RESISTOR DECADES</text><text
       font-family="Calibri,Calibri_MSFontService,sans-serif"
       font-weight="400"
       font-size="37"
       transform="matrix(1 0 0 1 1212.5 1192)"
       id="text63">(RELAYS, PRECISION RESISTORS)</text><path
       d="M34.375-6.87498 690.981-6.87466 690.981 6.87534 34.375 6.87502ZM41.25 20.625 0 0 41.25-20.625ZM684.106-20.6247 725.356 0.000360892 684.106 20.6253Z"
       transform="matrix(-1 0 0 1 1016.36 2181)"
       id="path65" /><text
       font-family="Calibri,Calibri_MSFontService,sans-serif"
       font-weight="700"
       font-size="37"
       transform="matrix(1 0 0 1 366.5 2060)"
       id="text67">USB</text><text
       font-family="Calibri,Calibri_MSFontService,sans-serif"
       font-weight="700"
       font-size="37"
       transform="matrix(1 0 0 1 314.067 2104)"
       id="text69">INTERFACE</text><text
       font-family="Calibri,Calibri_MSFontService,sans-serif"
       font-weight="700"
       font-size="37"
       transform="matrix(1 0 0 1 353.025 2148)"
       id="text71">(SCPI)</text><path
       d="M22.9168-1.14581 422.3-1.14547 422.3 1.14619 22.9168 1.14585ZM27.5 13.75 0 0 27.5-13.75Z"
       transform="matrix(-1 0 0 1 713.3 1962)"
       id="path73" /><text
       font-family="Calibri,Calibri_MSFontService,sans-serif"
       font-weight="400"
       font-size="37"
       transform="matrix(1 0 0 1 339.415 1943)"
       id="text75">EXT IN 2</text><path
       d="M22.9168-1.14581 422.3-1.14547 422.3 1.14619 22.9168 1.14585ZM27.5 13.75 0 0 27.5-13.75Z"
       transform="matrix(-1 0 0 1 713.3 1861)"
       id="path77" /><text
       font-family="Calibri,Calibri_MSFontService,sans-serif"
       font-weight="400"
       font-size="37"
       transform="matrix(1 0 0 1 339.415 1841)"
       id="text79">EXT IN 1</text><rect
       x="713.5"
       y="1791.5"
       width="190"
       height="232"
       stroke="#000000"
       stroke-width="3.4375"
       stroke-miterlimit="8"
       fill="none"
       id="rect81" /><text
       font-family="Calibri,Calibri_MSFontService,sans-serif"
       font-weight="400"
       font-size="37"
       transform="matrix(1 0 0 1 753.56 1897)"
       id="text83">SIGNAL </text><text
       font-family="Calibri,Calibri_MSFontService,sans-serif"
       font-weight="400"
       font-size="37"
       transform="matrix(1 0 0 1 758.716 1941)"
       id="text85">COND.</text><path
       d="M0 0 784.286 0.000360892"
       stroke="#000000"
       stroke-width="13.75"
       stroke-miterlimit="8"
       fill="none"
       fill-rule="evenodd"
       transform="matrix(-1 0 0 1 2158.29 2548)"
       id="path87" /><rect
       x="1986.5"
       y="2137.5"
       width="207"
       height="165"
       stroke="#000000"
       stroke-width="3.4375"
       stroke-miterlimit="8"
       fill="none"
       id="rect89" /><text
       font-family="Calibri,Calibri_MSFontService,sans-serif"
       font-weight="400"
       font-size="37"
       transform="matrix(1 0 0 1 2024.24 2231)"
       id="text91">EERPOM</text><text
       font-family="Calibri, Calibri_MSFontService, sans-serif"
       font-weight="400"
       font-size="37px"
       id="text93"
       x="1730.3373"
       y="2533.3967">I2C</text><path
       d="M1.14587 22.9166 1.14616 198.756-1.14551 198.756-1.1458 22.9166ZM-13.75 27.5 0 0 13.75 27.5ZM13.7503 194.172 0.000360892 221.672-13.7497 194.172Z"
       transform="matrix(1 0 0 -1 1648 2775.67)"
       id="path95" /><path
       d="M1.14587 22.9166 1.14616 215.67-1.14551 215.67-1.1458 22.9166ZM-13.75 27.5 0 0 13.75 27.5ZM13.7503 211.087 0.000360892 238.587-13.7497 211.087Z"
       transform="matrix(1 0 0 -1 1463 2540.59)"
       id="path99" /><path
       d="M1.14587 22.9166 1.14616 215.67-1.14551 215.67-1.1458 22.9166ZM-13.75 27.5 0 0 13.75 27.5ZM13.7503 211.087 0.000360892 238.587-13.7497 211.087Z"
       transform="matrix(1 0 0 -1 2089 2540.59)"
       id="path101" /><text
       font-family="Calibri,Calibri_MSFontService,sans-serif"
       font-weight="400"
       font-size="37"
       transform="matrix(1 0 0 1 1489.14 2343)"
       id="text103">Master</text><path
       d="M22.9167-1.14576 113.766-1.14547 113.766 1.14619 22.9167 1.14591ZM27.5 13.7501 0 0 27.5-13.7499Z"
       transform="matrix(-1 0 0 1 1016.77 1907)"
       id="path105" /><rect
       x="521.5"
       y="874.5"
       width="1835"
       height="1576"
       stroke="#000000"
       stroke-width="3.4375"
       stroke-miterlimit="8"
       stroke-dasharray="13.75 10.3125"
       fill="none"
       id="rect107" /><text
       font-family="Calibri,Calibri_MSFontService,sans-serif"
       font-weight="400"
       font-size="46"
       transform="matrix(1 0 0 1 553.699 933)"
       id="text109">MAINBOARD</text><path
       d="M1.1459 22.9167 1.14613 102.303-1.14554 102.303-1.14577 22.9167ZM-13.7499 27.5 0 0 13.7501 27.5ZM13.7503 97.7195 0.000360892 125.22-13.7497 97.7196Z"
       transform="matrix(1 0 0 -1 1341 1466.22)"
       id="path111" /><path
       d="M1.14583-2.749e-06 1.14614 127.51-1.14553 127.51-1.14583 2.749e-06ZM13.7503 122.927 0.000360892 150.427-13.7497 122.927Z"
       transform="matrix(1 0 0 -1 1264 1791.43)"
       id="path113" /><text
       font-family="Calibri,Calibri_MSFontService,sans-serif"
       font-weight="400"
       font-size="37"
       transform="matrix(1 0 0 1 1285.82 1731)"
       id="text115">SPI</text><path
       d="M1.14583-2.749e-06 1.14614 127.51-1.14553 127.51-1.14583 2.749e-06ZM13.7503 122.927 0.000360892 150.427-13.7497 122.927Z"
       transform="matrix(1 0 0 -1 1439 1791.43)"
       id="path117" /><text
       font-family="Calibri,Calibri_MSFontService,sans-serif"
       font-weight="400"
       font-size="37"
       transform="matrix(1 0 0 1 1465.52 1731)"
       id="text119">OE</text><path
       d="M3.31862e-06-1.14583 101.69-1.14554 101.69 1.14613-3.31862e-06 1.14583ZM97.1068-13.7497 124.607 0.000360892 97.1067 13.7503Z"
       transform="matrix(-1 0 0 1 2201.61 2862)"
       id="path121" /><text
       font-family="Calibri,Calibri_MSFontService,sans-serif"
       font-weight="400"
       font-size="37"
       transform="matrix(1 0 0 1 2225.04 2874)"
       id="text123">SWD</text><path
       d="M3.20787e-06-1.14583 105.992-1.14554 105.992 1.14613-3.20787e-06 1.14583ZM101.409-13.7497 128.909 0.000360892 101.409 13.7503Z"
       transform="matrix(-1 0 0 1 2013.91 2055)"
       id="path125" /><text
       font-family="Calibri,Calibri_MSFontService,sans-serif"
       font-weight="400"
       font-size="37"
       transform="matrix(1 0 0 1 2033.24 2066)"
       id="text127">SWD</text><rect
       x="1648.5"
       y="1214.5"
       width="208"
       height="108"
       stroke="#000000"
       stroke-width="3.4375"
       stroke-miterlimit="8"
       fill="none"
       id="rect129" /><text
       font-family="Calibri,Calibri_MSFontService,sans-serif"
       font-weight="400"
       font-size="37"
       transform="matrix(1 0 0 1 1709.17 1258)"
       id="text131">TEMP </text><text
       font-family="Calibri,Calibri_MSFontService,sans-serif"
       font-weight="400"
       font-size="37"
       transform="matrix(1 0 0 1 1683.96 1302)"
       id="text133">SENS 1, 2</text><path
       d="M1.14585 22.9168 1.14619 469.196-1.14547 469.196-1.14582 22.9168ZM-13.75 27.5 0 0 13.75 27.5Z"
       transform="matrix(1 0 0 -1 1752 1791.2)"
       id="path135" /><path
       d="M22.9168-1.14582 700.793-1.14548 700.793 1.14618 22.9168 1.14584ZM27.5 13.75 0 0 27.5-13.75ZM696.208-13.7497 723.708 0.000360892 696.208 13.7503Z"
       transform="matrix(-1 0 0 1 1014.71 1106)"
       id="path137" /><text
       font-family="Arial, Arial_MSFontService, sans-serif"
       font-weight="400"
       font-size="37px"
       id="text139"
       x="324.45743"
       y="1089">INPUT LO</text><path
       d="M22.9168-1.14582 702.439-1.14548 702.439 1.14618 22.9168 1.14584ZM27.5 13.75 0 0 27.5-13.75ZM697.856-13.7497 725.356 0.000360892 697.856 13.7503Z"
       transform="matrix(-1 0 0 1 1016.36 1006)"
       id="path141" /><text
       font-family="Arial, Arial_MSFontService, sans-serif"
       font-weight="400"
       font-size="37px"
       id="text143"
       x="324.45743"
       y="988">INPUT HI</text><path
       d="M22.9168-1.14582 700.793-1.14548 700.793 1.14618 22.9168 1.14584ZM27.5 13.75 0 0 27.5-13.75ZM696.208-13.7497 723.708 0.000360892 696.208 13.7503Z"
       transform="matrix(-1 0 0 1 1014.71 1308)"
       id="path145" /><text
       font-family="Arial, Arial_MSFontService, sans-serif"
       font-weight="400"
       font-size="37px"
       id="text147"
       x="326.246"
       y="1291">SENSE LO</text><path
       d="M22.9168-1.14582 702.439-1.14548 702.439 1.14618 22.9168 1.14584ZM27.5 13.75 0 0 27.5-13.75ZM697.856-13.7497 725.356 0.000360892 697.856 13.7503Z"
       transform="matrix(-1 0 0 1 1016.36 1207)"
       id="path149" /><text
       font-family="Arial, Arial_MSFontService, sans-serif"
       font-weight="400"
       font-size="37px"
       id="text151"
       x="326.246"
       y="1190">SENSE HI</text><rect
       x="2447.5"
       y="874.5"
       width="507"
       height="1576"
       stroke="#000000"
       stroke-width="3.4375"
       stroke-miterlimit="8"
       stroke-dasharray="13.75 10.3125"
       fill="none"
       id="rect153" /><text
       font-family="Calibri,Calibri_MSFontService,sans-serif"
       font-weight="400"
       font-size="46"
       transform="matrix(1 0 0 1 2480.42 933)"
       id="text155">POWER SUPPLY BOARD</text><rect
       x="2543.5"
       y="1238.5"
       width="320"
       height="340"
       stroke="#000000"
       stroke-width="3.4375"
       stroke-miterlimit="8"
       fill="none"
       id="rect157" /><text
       font-family="Calibri,Calibri_MSFontService,sans-serif"
       font-weight="400"
       font-size="37"
       transform="matrix(1 0 0 1 2654.58 1398)"
       id="text159">AC/DC </text><text
       font-family="Calibri,Calibri_MSFontService,sans-serif"
       font-weight="400"
       font-size="37"
       transform="matrix(1 0 0 1 2612.48 1442)"
       id="text161">CONVERTER</text><rect
       x="2543.5"
       y="1771.5"
       width="320"
       height="183"
       stroke="#000000"
       stroke-width="3.4375"
       stroke-miterlimit="8"
       fill="none"
       id="rect163" /><text
       font-family="Calibri,Calibri_MSFontService,sans-serif"
       font-weight="400"
       font-size="37"
       transform="matrix(1 0 0 1 2654 1852)"
       id="text165">DC/DC </text><text
       font-family="Calibri,Calibri_MSFontService,sans-serif"
       font-weight="400"
       font-size="37"
       transform="matrix(1 0 0 1 2612.48 1896)"
       id="text167">CONVERTER</text><rect
       x="2543.5"
       y="1001.5"
       width="320"
       height="125"
       stroke="#000000"
       stroke-width="3.4375"
       stroke-miterlimit="8"
       fill="none"
       id="rect169" /><text
       font-family="Calibri,Calibri_MSFontService,sans-serif"
       font-weight="400"
       font-size="37"
       transform="matrix(1 0 0 1 2599.58 1053)"
       id="text171">PROTECTION/</text><text
       font-family="Calibri,Calibri_MSFontService,sans-serif"
       font-weight="400"
       font-size="37"
       transform="matrix(1 0 0 1 2586.7 1097)"
       id="text173">FILTER, SWITCH</text><path
       d="M2704.52 1954 2704.52 3113.84 2221.92 3113.89 2221.92 3111.59 2703.38 3111.55 2702.23 3112.7 2702.23 1954ZM2226.63 3126.45 2199 3112.95 2226.37 3098.95Z"
       id="path175" /><rect
       x="1982.5"
       y="1604.5"
       width="207"
       height="153"
       stroke="#000000"
       stroke-width="3.4375"
       stroke-miterlimit="8"
       fill="none"
       id="rect177" /><text
       font-family="Calibri,Calibri_MSFontService,sans-serif"
       font-weight="400"
       font-size="37"
       transform="matrix(1 0 0 1 2047.73 1671)"
       id="text179">+15V</text><text
       font-family="Calibri,Calibri_MSFontService,sans-serif"
       font-weight="400"
       font-size="37"
       transform="matrix(1 0 0 1 2026.26 1715)"
       id="text181">SWITCH</text><path
       d="M0-1.14583 202.016-1.14583 202.016 127.185 199.724 127.185 199.724 0 200.87 1.14583 0 1.14583ZM214.62 122.601 200.87 150.101 187.12 122.601Z"
       transform="matrix(1 0 0 -1 1885 1907.1)"
       id="path183" /><path
       d="M1.28483e-06-1.14583 298.934-1.1455 298.934 1.14617-1.28483e-06 1.14583ZM294.351-13.7497 321.851 0.000360892 294.351 13.7503Z"
       transform="matrix(-1 0 0 1 3181.85 1061)"
       id="path185" /><text
       font-family="Calibri,Calibri_MSFontService,sans-serif"
       font-weight="400"
       font-size="37"
       transform="matrix(1 0 0 1 3087.97 1044)"
       id="text187">LINE</text><path
       d="M1.14591 22.9167 1.14619 114.462-1.14547 114.462-1.14576 22.9167ZM-13.7499 27.5 0 0 13.7501 27.5Z"
       transform="matrix(1 0 0 -1 2703 1238.46)"
       id="path189" /><path
       d="M1.14588 22.9166 1.14619 192.526-1.14547 192.526-1.14579 22.9166ZM-13.7499 27.5 0 0 13.7501 27.5Z"
       transform="matrix(1 0 0 -1 2703 1770.53)"
       id="path191" /><text
       font-family="Calibri,Calibri_MSFontService,sans-serif"
       font-weight="400"
       font-size="37"
       transform="matrix(1 0 0 1 2598.31 2041)"
       id="text193">+3.3V</text><path
       d="M2703.83 1954 2703.83 2053.24 2211.92 2053.24 2211.92 2050.95 2702.68 2050.95 2701.54 2052.1 2701.54 1954ZM2216.5 2065.85 2189 2052.1 2216.5 2038.35Z"
       id="path195" /><text
       font-family="Calibri,Calibri_MSFontService,sans-serif"
       font-weight="400"
       font-size="37"
       transform="matrix(1 0 0 1 2610.34 1626)"
       id="text197">+15V</text><path
       d="M2703.83 1578 2703.83 1681.45 2211.92 1681.45 2211.92 1679.16 2702.68 1679.16 2701.54 1680.31 2701.54 1578ZM2216.5 1694.06 2189 1680.31 2216.5 1666.56Z"
       id="path199" /><path
       d="M0-1.14583 447.477-1.14583 447.477 180.798 445.185 180.798 445.185 0 446.331 1.14583 0 1.14583ZM460.081 176.215 446.331 203.715 432.581 176.215Z"
       transform="matrix(-1.83697e-16 -1 -1 1.83697e-16 2085.71 1604.33)"
       id="path201" /><text
       font-family="Calibri,Calibri_MSFontService,sans-serif"
       font-weight="400"
       font-size="37"
       transform="matrix(1 0 0 1 2116.04 1569)"
       id="text203">+15V SW</text><path
       d="M576.5 1855.3C576.5 1841.6 587.603 1830.5 601.3 1830.5L603.699 1830.5C617.396 1830.5 628.5 1841.6 628.5 1855.3L628.5 1967.7C628.5 1981.4 617.396 1992.5 603.699 1992.5L601.3 1992.5C587.603 1992.5 576.5 1981.4 576.5 1967.7Z"
       stroke="#000000"
       stroke-width="4.58333"
       stroke-miterlimit="8"
       fill="none"
       fill-rule="evenodd"
       id="path205" /><text
       font-family="Calibri,Calibri_MSFontService,sans-serif"
       font-weight="400"
       font-size="37"
       transform="matrix(1 0 0 1 587.492 1923)"
       id="text207">J2</text><path
       d="M576.5 1006.3C576.5 992.603 587.603 981.5 601.3 981.5L603.7 981.5C617.396 981.5 628.5 992.603 628.5 1006.3L628.5 1310.7C628.5 1324.4 617.396 1335.5 603.7 1335.5L601.3 1335.5C587.603 1335.5 576.5 1324.4 576.5 1310.7Z"
       stroke="#000000"
       stroke-width="4.58333"
       stroke-miterlimit="8"
       fill="none"
       fill-rule="evenodd"
       id="path209" /><text
       font-family="Calibri,Calibri_MSFontService,sans-serif"
       font-weight="400"
       font-size="37"
       transform="matrix(1 0 0 1 587.492 1170)"
       id="text211">J6</text><path
       d="M576.5 2136.3C576.5 2122.6 587.603 2111.5 601.3 2111.5L603.7 2111.5C617.396 2111.5 628.5 2122.6 628.5 2136.3L628.5 2224.7C628.5 2238.4 617.396 2249.5 603.7 2249.5L601.3 2249.5C587.603 2249.5 576.5 2238.4 576.5 2224.7Z"
       stroke="#000000"
       stroke-width="4.58333"
       stroke-miterlimit="8"
       fill="none"
       fill-rule="evenodd"
       id="path213" /><text
       font-family="Calibri,Calibri_MSFontService,sans-serif"
       font-weight="400"
       font-size="37"
       transform="matrix(1 0 0 1 587.492 2160)"
       id="text215">J3</text><text
       font-family="Calibri, Calibri_MSFontService, sans-serif"
       font-weight="400"
       font-size="37px"
       id="text221"
       x="1421.2017"
       y="2391.6748">J4</text><text
       font-family="Calibri, Calibri_MSFontService, sans-serif"
       font-weight="400"
       font-size="37px"
       id="text223"
       x="1604.8524"
       y="2707.4563">J2</text><path
       d="M1935.5 2016.3C1935.5 2002.6 1946.6 1991.5 1960.3 1991.5L1962.7 1991.5C1976.4 1991.5 1987.5 2002.6 1987.5 2016.3L1987.5 2087.7C1987.5 2101.4 1976.4 2112.5 1962.7 2112.5L1960.3 2112.5C1946.6 2112.5 1935.5 2101.4 1935.5 2087.7Z"
       stroke="#000000"
       stroke-width="4.58333"
       stroke-miterlimit="8"
       fill="none"
       fill-rule="evenodd"
       id="path225" /><path
       d="m 1498.4165,2353.7393 c 13.7,0 24.8,11.1 24.8,24.8 v 2.4 c 0,13.7 -11.1,24.8 -24.8,24.8 h -71.4 c -13.7,0 -24.8,-11.1 -24.8,-24.8 v -2.4 c 0,-13.7 11.1,-24.8 24.8,-24.8 z"
       stroke="#000000"
       stroke-width="4.58333"
       stroke-miterlimit="8"
       fill="none"
       fill-rule="evenodd"
       id="path225-6" /><path
       d="m 1684.5086,2670.0941 c 13.7,0 24.8,11.1 24.8,24.8 v 2.4 c 0,13.7 -11.1,24.8 -24.8,24.8 h -71.4 c -13.7,0 -24.8,-11.1 -24.8,-24.8 v -2.4 c 0,-13.7 11.1,-24.8 24.8,-24.8 z"
       stroke="#000000"
       stroke-width="4.58333"
       stroke-miterlimit="8"
       fill="none"
       fill-rule="evenodd"
       id="path225-6-9" /><text
       font-family="Calibri,Calibri_MSFontService,sans-serif"
       font-weight="400"
       font-size="37"
       transform="matrix(1 0 0 1 1946.06 2039)"
       id="text227">J5</text><path
       d="M2124.5 2826.3C2124.5 2812.6 2135.6 2801.5 2149.3 2801.5L2151.7 2801.5C2165.4 2801.5 2176.5 2812.6 2176.5 2826.3L2176.5 2896.7C2176.5 2910.4 2165.4 2921.5 2151.7 2921.5L2149.3 2921.5C2135.6 2921.5 2124.5 2910.4 2124.5 2896.7Z"
       stroke="#000000"
       stroke-width="4.58333"
       stroke-miterlimit="8"
       fill="none"
       fill-rule="evenodd"
       id="path229" /><text
       font-family="Calibri,Calibri_MSFontService,sans-serif"
       font-weight="400"
       font-size="37"
       transform="matrix(1 0 0 1 2135.36 2848)"
       id="text231">J3</text><path
       d="M2249.5 1673.3C2249.5 1659.6 2260.6 1648.5 2274.3 1648.5L2276.7 1648.5C2290.4 1648.5 2301.5 1659.6 2301.5 1673.3L2301.5 2063.7C2301.5 2077.4 2290.4 2088.5 2276.7 2088.5L2274.3 2088.5C2260.6 2088.5 2249.5 2077.4 2249.5 2063.7Z"
       stroke="#000000"
       stroke-width="4.58333"
       stroke-miterlimit="8"
       fill="none"
       fill-rule="evenodd"
       id="path233" /><text
       font-family="Calibri,Calibri_MSFontService,sans-serif"
       font-weight="400"
       font-size="37"
       transform="matrix(1 0 0 1 2259.81 1880)"
       id="text235">J1</text><path
       d="M2253.5 3070.82C2253.5 3057.39 2264.39 3046.5 2277.82 3046.5L2280.18 3046.5C2293.61 3046.5 2304.5 3057.39 2304.5 3070.82L2304.5 3143.18C2304.5 3156.61 2293.61 3167.5 2280.18 3167.5L2277.82 3167.5C2264.39 3167.5 2253.5 3156.61 2253.5 3143.18Z"
       stroke="#000000"
       stroke-width="4.58333"
       stroke-miterlimit="8"
       fill="none"
       fill-rule="evenodd"
       id="path237" /><text
       font-family="Calibri,Calibri_MSFontService,sans-serif"
       font-weight="400"
       font-size="37"
       transform="matrix(1 0 0 1 2263.6 3093)"
       id="text239">J1</text></g></svg>
